STARTFONT 2.1
FONT -ibm-courier-bold-o-normal--24-240-75-75-m-127-iso8859-2
SIZE 24 75 75
FONTBOUNDINGBOX 21 26 -1 -4
COMMENT $Header: courBO24.bdf,v 1.1 96/01/22 23:45:34 peterlin Exp $
COMMENT 
COMMENT Copyright International Business Machines,Corp. 1991
COMMENT IBM Courier is a Trademark of the IBM Corporation.
COMMENT 
COMMENT Automatic rendering from Adobe Type 1 outline:
COMMENT Primoz Peterlin <primoz.peterlin@biofiz.mf.uni-lj.si>
COMMENT courbi.pfa rendered at 24.000000 points
COMMENT Checksum eb69a063
STARTPROPERTIES 3
FONT_ASCENT 21
FONT_DESCENT 4
DEFAULT_CHAR 32
ENDPROPERTIES
CHARS 191
STARTCHAR space
ENCODING 32
SWIDTH 596 0
DWIDTH 15 0
BBX 0 0 0 1
BITMAP
ENDCHAR
STARTCHAR exclam
ENCODING 33
SWIDTH 596 0
DWIDTH 15 0
BBX 6 15 6 1
BITMAP
1c
1c
18
38
38
38
30
30
30
70
00
60
f0
f0
e0
ENDCHAR
STARTCHAR quotedbl
ENCODING 34
SWIDTH 596 0
DWIDTH 15 0
BBX 10 8 5 8
BITMAP
7bc0
7380
7380
7380
7380
e700
e700
e700
ENDCHAR
STARTCHAR numbersign
ENCODING 35
SWIDTH 596 0
DWIDTH 15 0
BBX 15 18 2 -1
BITMAP
030c
071c
0618
0618
0618
3ffe
7ffe
0c30
1c70
1860
fffc
fff8
30c0
30c0
30c0
71c0
6180
6180
ENDCHAR
STARTCHAR dollar
ENCODING 36
SWIDTH 596 0
DWIDTH 15 0
BBX 13 20 2 -2
BITMAP
0080
0080
0190
07d8
0ff8
1db0
19b0
1b00
1f00
0f80
03e0
0360
6260
6660
76c0
7fc0
5f00
0400
0400
0c00
ENDCHAR
STARTCHAR percent
ENCODING 37
SWIDTH 596 0
DWIDTH 15 0
BBX 12 16 3 1
BITMAP
1c00
7e00
6300
c300
c300
c610
7c70
3bf0
1f80
f9e0
47f0
0630
0c30
0c30
0fe0
03c0
ENDCHAR
STARTCHAR ampersand
ENCODING 38
SWIDTH 596 0
DWIDTH 15 0
BBX 11 14 3 1
BITMAP
07c0
0fc0
1cc0
1840
1800
1c00
1c60
7ce0
e6c0
c780
c780
ef00
7fc0
3980
ENDCHAR
STARTCHAR quoteright
ENCODING 39
SWIDTH 596 0
DWIDTH 15 0
BBX 7 7 6 9
BITMAP
1e
1c
3c
38
70
70
e0
ENDCHAR
STARTCHAR parenleft
ENCODING 40
SWIDTH 596 0
DWIDTH 15 0
BBX 8 19 8 -1
BITMAP
06
0e
1c
18
38
30
70
60
e0
c0
c0
c0
c0
c0
c0
e0
60
60
60
ENDCHAR
STARTCHAR parenright
ENCODING 41
SWIDTH 596 0
DWIDTH 15 0
BBX 8 19 2 -1
BITMAP
0e
06
06
07
03
03
03
03
03
03
06
06
0e
0c
1c
18
30
70
e0
ENDCHAR
STARTCHAR asterisk
ENCODING 42
SWIDTH 596 0
DWIDTH 15 0
BBX 10 10 5 6
BITMAP
0600
0600
4e40
7fc0
ffc0
1e00
3e00
7700
6700
2200
ENDCHAR
STARTCHAR plus
ENCODING 43
SWIDTH 596 0
DWIDTH 15 0
BBX 12 12 3 3
BITMAP
0600
0600
0600
0600
0600
fff0
fff0
0600
0600
0600
0600
0600
ENDCHAR
STARTCHAR comma
ENCODING 44
SWIDTH 596 0
DWIDTH 15 0
BBX 7 7 3 -2
BITMAP
1e
1c
3c
38
70
70
e0
ENDCHAR
STARTCHAR minus
ENCODING 45
SWIDTH 596 0
DWIDTH 15 0
BBX 12 2 3 8
BITMAP
fff0
fff0
ENDCHAR
STARTCHAR period
ENCODING 46
SWIDTH 596 0
DWIDTH 15 0
BBX 5 4 5 1
BITMAP
70
f8
f8
70
ENDCHAR
STARTCHAR slash
ENCODING 47
SWIDTH 596 0
DWIDTH 15 0
BBX 16 21 1 -2
BITMAP
0003
0006
000e
000c
0018
0038
0030
0060
00c0
00c0
0180
0300
0700
0600
0c00
1c00
1800
3000
7000
6000
c000
ENDCHAR
STARTCHAR zero
ENCODING 48
SWIDTH 596 0
DWIDTH 15 0
BBX 10 16 4 1
BITMAP
0f80
1f80
38c0
30c0
70c0
60c0
60c0
e0c0
c0c0
c180
c180
c180
c300
c700
7e00
7c00
ENDCHAR
STARTCHAR one
ENCODING 49
SWIDTH 596 0
DWIDTH 15 0
BBX 11 16 2 1
BITMAP
01c0
07c0
1f80
1980
0180
0380
0300
0300
0300
0300
0700
0600
0600
0600
ffe0
ffe0
ENDCHAR
STARTCHAR two
ENCODING 50
SWIDTH 596 0
DWIDTH 15 0
BBX 12 16 2 1
BITMAP
03c0
0fe0
1c70
1830
1830
0030
0070
00e0
01c0
0380
0700
1e40
3c40
70c0
ffc0
ffc0
ENDCHAR
STARTCHAR three
ENCODING 51
SWIDTH 596 0
DWIDTH 15 0
BBX 12 16 2 1
BITMAP
07c0
1fe0
1c70
1030
0030
0060
01e0
07c0
07c0
00e0
0060
0060
00e0
41c0
ff80
3e00
ENDCHAR
STARTCHAR four
ENCODING 52
SWIDTH 596 0
DWIDTH 15 0
BBX 11 16 2 1
BITMAP
00e0
01e0
03c0
03c0
06c0
0cc0
18c0
3980
3180
6180
ffe0
ffe0
0300
0300
1fc0
3fc0
ENDCHAR
STARTCHAR five
ENCODING 53
SWIDTH 596 0
DWIDTH 15 0
BBX 13 16 2 1
BITMAP
0ff8
0ff8
1c00
1800
1800
1800
1f80
3fc0
38e0
0060
0060
0060
00c0
41c0
ff80
3f00
ENDCHAR
STARTCHAR six
ENCODING 54
SWIDTH 596 0
DWIDTH 15 0
BBX 13 16 3 1
BITMAP
01f8
07f0
0e00
1c00
3800
3000
7f00
7f80
f9c0
e0c0
e0c0
c0c0
c1c0
e380
7f00
3e00
ENDCHAR
STARTCHAR seven
ENCODING 55
SWIDTH 596 0
DWIDTH 15 0
BBX 11 16 5 1
BITMAP
7fe0
7fe0
c0c0
c1c0
c180
0380
0300
0700
0600
0e00
1c00
1c00
3800
3800
7000
7000
ENDCHAR
STARTCHAR eight
ENCODING 56
SWIDTH 596 0
DWIDTH 15 0
BBX 12 16 3 1
BITMAP
07c0
0fe0
1c70
3830
3030
3060
38c0
1f80
3f80
71c0
60c0
c0c0
c0c0
e380
7f00
3e00
ENDCHAR
STARTCHAR nine
ENCODING 57
SWIDTH 596 0
DWIDTH 15 0
BBX 12 16 2 1
BITMAP
03c0
07e0
0e70
0c30
1830
1830
1830
18f0
0fe0
07e0
0060
00c0
01c0
0780
ff00
fc00
ENDCHAR
STARTCHAR colon
ENCODING 58
SWIDTH 596 0
DWIDTH 15 0
BBX 7 10 5 1
BITMAP
1c
3e
3e
1c
00
00
70
f8
f8
70
ENDCHAR
STARTCHAR semicolon
ENCODING 59
SWIDTH 596 0
DWIDTH 15 0
BBX 9 13 3 -2
BITMAP
0700
0f80
0f80
0700
0000
0000
0e00
1e00
1c00
3800
3800
7000
e000
ENDCHAR
STARTCHAR less
ENCODING 60
SWIDTH 596 0
DWIDTH 15 0
BBX 14 12 2 3
BITMAP
0008
003c
00f8
07e0
1f00
7c00
7c00
1f80
07e0
00f8
003c
0008
ENDCHAR
STARTCHAR equal
ENCODING 61
SWIDTH 596 0
DWIDTH 15 0
BBX 12 6 3 6
BITMAP
fff0
fff0
0000
0000
fff0
fff0
ENDCHAR
STARTCHAR greater
ENCODING 62
SWIDTH 596 0
DWIDTH 15 0
BBX 14 12 2 3
BITMAP
4000
f000
fc00
7f00
0fe0
01f8
00f8
03e0
1f80
7e00
f000
4000
ENDCHAR
STARTCHAR question
ENCODING 63
SWIDTH 596 0
DWIDTH 15 0
BBX 9 15 5 1
BITMAP
3e00
7f00
e380
c180
c180
0180
0700
3e00
3000
3000
0000
6000
f000
f000
e000
ENDCHAR
STARTCHAR at
ENCODING 64
SWIDTH 596 0
DWIDTH 15 0
BBX 14 15 2 1
BITMAP
03e0
0ff8
1c38
301c
71ac
67ec
eecc
cccc
d998
dff8
dce0
c000
6030
7ff0
1f80
ENDCHAR
STARTCHAR A
ENCODING 65
SWIDTH 596 0
DWIDTH 15 0
BBX 15 15 0 1
BITMAP
07e0
07e0
00f0
01f0
03b0
0330
0730
0638
0ff8
0ff8
1818
1818
3008
fc7e
fc7e
ENDCHAR
STARTCHAR B
ENCODING 66
SWIDTH 596 0
DWIDTH 15 0
BBX 14 15 1 1
BITMAP
1ff0
3ff8
0c1c
0c0c
0c0c
0c1c
1ff8
1ff8
181c
180c
180c
381c
3038
fff0
ffe0
ENDCHAR
STARTCHAR C
ENCODING 67
SWIDTH 596 0
DWIDTH 15 0
BBX 14 15 3 1
BITMAP
03c8
0ffc
1c3c
3018
7018
6018
e000
c000
c000
c000
c000
c020
6070
7ff0
1f80
ENDCHAR
STARTCHAR D
ENCODING 68
SWIDTH 596 0
DWIDTH 15 0
BBX 16 15 0 1
BITMAP
1ff8
1ffe
060e
0607
0e03
0e03
0c03
0c03
0c06
1c06
1c0e
181c
1838
7ff0
7fc0
ENDCHAR
STARTCHAR E
ENCODING 69
SWIDTH 596 0
DWIDTH 15 0
BBX 16 15 1 1
BITMAP
1fff
1fff
0607
0e06
0e26
0c76
0ff0
0fe0
1c60
1cec
180c
181c
181c
fff8
fff8
ENDCHAR
STARTCHAR F
ENCODING 70
SWIDTH 596 0
DWIDTH 15 0
BBX 15 15 2 1
BITMAP
1ffe
1ffe
0c0e
0c0c
0c6c
0c64
0fe0
0fc0
18c0
18c0
1800
1800
1800
fe00
fe00
ENDCHAR
STARTCHAR G
ENCODING 71
SWIDTH 596 0
DWIDTH 15 0
BBX 15 15 2 1
BITMAP
03ec
0ffc
1c3c
381c
7018
6018
e000
c000
c1fc
c1fc
c030
e030
7020
3fe0
1f80
ENDCHAR
STARTCHAR H
ENCODING 72
SWIDTH 596 0
DWIDTH 15 0
BBX 17 15 0 1
BITMAP
1f9f80
1f9f80
0e0e00
0e0c00
0c0c00
0c0c00
0ffc00
1ffc00
1c1800
181800
181800
183800
383800
fcfc00
fcfc00
ENDCHAR
STARTCHAR I
ENCODING 73
SWIDTH 596 0
DWIDTH 15 0
BBX 14 15 2 1
BITMAP
1ffc
1ffc
0180
0180
0180
0380
0300
0300
0300
0700
0700
0600
0600
ffe0
ffe0
ENDCHAR
STARTCHAR J
ENCODING 74
SWIDTH 596 0
DWIDTH 15 0
BBX 16 15 2 1
BITMAP
03ff
03ff
0030
0030
0030
0030
0070
0060
6060
6060
6060
c0c0
e1c0
ff80
1f00
ENDCHAR
STARTCHAR K
ENCODING 75
SWIDTH 596 0
DWIDTH 15 0
BBX 16 15 1 1
BITMAP
1fbf
1fbf
061c
0e38
0ce0
0dc0
0f80
0f80
1dc0
19c0
18c0
1860
1860
fe7c
fc3c
ENDCHAR
STARTCHAR L
ENCODING 76
SWIDTH 596 0
DWIDTH 15 0
BBX 14 15 1 1
BITMAP
1fc0
1fc0
0600
0600
0400
0c00
0c00
0c00
0c0c
0c0c
1818
1818
1818
fff8
fff0
ENDCHAR
STARTCHAR M
ENCODING 77
SWIDTH 596 0
DWIDTH 15 0
BBX 18 15 0 1
BITMAP
1f07c0
1f0fc0
0f0f00
0f0f00
0d9f00
0d9600
19b600
19a600
19e600
19c600
30c600
300c00
300c00
fc7f00
fc7e00
ENDCHAR
STARTCHAR N
ENCODING 78
SWIDTH 596 0
DWIDTH 15 0
BBX 18 15 0 1
BITMAP
1f0fc0
1f1fc0
0f8300
0f8700
0d8700
0dc600
1dc600
1cce00
18ee00
18ec00
186c00
387c00
307c00
fe3c00
fc3800
ENDCHAR
STARTCHAR O
ENCODING 79
SWIDTH 596 0
DWIDTH 15 0
BBX 14 15 2 1
BITMAP
03e0
0ff0
1c38
381c
700c
600c
e00c
c00c
c01c
c018
c038
e070
70e0
7fc0
1f00
ENDCHAR
STARTCHAR P
ENCODING 80
SWIDTH 596 0
DWIDTH 15 0
BBX 14 15 2 1
BITMAP
1ff0
1ff8
0e1c
0c0c
0c0c
0c0c
0c1c
1c38
1ff0
1fe0
1800
1800
3800
ff00
ff00
ENDCHAR
STARTCHAR Q
ENCODING 81
SWIDTH 596 0
DWIDTH 15 0
BBX 14 18 2 -2
BITMAP
03e0
0ff0
1c38
381c
700c
600c
600c
c00c
c01c
c018
c038
e070
70e0
7fc0
3f00
3e20
7ff0
63c0
ENDCHAR
STARTCHAR R
ENCODING 82
SWIDTH 596 0
DWIDTH 15 0
BBX 14 15 1 1
BITMAP
1ff0
3ff8
0c1c
0c0c
0c0c
0c1c
1c38
1ff0
1fe0
18c0
18c0
38e0
3060
fc7c
fc3c
ENDCHAR
STARTCHAR S
ENCODING 83
SWIDTH 596 0
DWIDTH 15 0
BBX 15 15 1 1
BITMAP
03e4
07fe
0e1c
1c0c
180c
180c
1f00
0ff0
03f8
0018
6018
6018
7070
7fe0
cfc0
ENDCHAR
STARTCHAR T
ENCODING 84
SWIDTH 596 0
DWIDTH 15 0
BBX 14 15 3 1
BITMAP
3ffc
7ffc
631c
631c
6318
c318
0300
0600
0600
0600
0600
0600
0e00
7f80
7f80
ENDCHAR
STARTCHAR U
ENCODING 85
SWIDTH 596 0
DWIDTH 15 0
BBX 15 15 3 1
BITMAP
fefe
fefc
7030
7030
6030
6030
6030
6060
e060
c060
c060
c0c0
e1c0
7f80
3e00
ENDCHAR
STARTCHAR V
ENCODING 86
SWIDTH 596 0
DWIDTH 15 0
BBX 16 15 2 1
BITMAP
fe3f
fc7f
301c
3818
3830
3870
1860
18e0
18c0
1980
1b80
1f00
0f00
0e00
0c00
ENDCHAR
STARTCHAR W
ENCODING 87
SWIDTH 596 0
DWIDTH 15 0
BBX 16 15 2 1
BITMAP
fc3f
fc3f
600c
600c
619c
6398
6798
67b8
6db0
7db0
79e0
f1e0
f1e0
e0c0
e0c0
ENDCHAR
STARTCHAR X
ENCODING 88
SWIDTH 596 0
DWIDTH 15 0
BBX 17 15 0 1
BITMAP
1fdf80
1f9f80
070e00
071c00
03b800
03f000
01e000
01c000
03e000
076000
0e7000
1c3000
383800
fe7e00
fcfc00
ENDCHAR
STARTCHAR Y
ENCODING 89
SWIDTH 596 0
DWIDTH 15 0
BBX 14 15 3 1
BITMAP
fcfc
fcfc
3060
30e0
18c0
1980
1f00
0f00
0e00
0c00
0c00
0c00
0c00
7f00
7f00
ENDCHAR
STARTCHAR Z
ENCODING 90
SWIDTH 596 0
DWIDTH 15 0
BBX 14 15 2 1
BITMAP
1ffc
1ffc
1838
1870
30e0
31c0
0380
0700
0600
0e38
1c30
3830
7030
fff0
fff0
ENDCHAR
STARTCHAR bracketleft
ENCODING 91
SWIDTH 596 0
DWIDTH 15 0
BBX 9 19 7 -1
BITMAP
0f80
0f80
0800
1800
1800
1800
1800
3000
3000
3000
3000
3000
7000
6000
6000
6000
6000
f800
f800
ENDCHAR
STARTCHAR backslash
ENCODING 92
SWIDTH 596 0
DWIDTH 15 0
BBX 7 22 5 -2
BITMAP
40
c0
e0
60
60
60
70
30
30
30
38
18
18
18
18
0c
0c
0c
0c
0e
06
04
ENDCHAR
STARTCHAR bracketright
ENCODING 93
SWIDTH 596 0
DWIDTH 15 0
BBX 9 19 2 -1
BITMAP
0f80
0f80
0300
0300
0300
0300
0700
0600
0600
0600
0600
0600
0c00
0c00
0c00
0c00
0800
f800
f800
ENDCHAR
STARTCHAR asciicircum
ENCODING 94
SWIDTH 596 0
DWIDTH 15 0
BBX 12 11 3 5
BITMAP
0f00
0f00
1f80
1980
3980
39c0
30c0
70e0
70e0
6060
e070
ENDCHAR
STARTCHAR underscore
ENCODING 95
SWIDTH 596 0
DWIDTH 15 0
BBX 17 2 -1 -2
BITMAP
ffff80
ffff80
ENDCHAR
STARTCHAR quoteleft
ENCODING 96
SWIDTH 596 0
DWIDTH 15 0
BBX 7 7 6 9
BITMAP
0e
1c
1c
38
78
70
f0
ENDCHAR
STARTCHAR a
ENCODING 97
SWIDTH 596 0
DWIDTH 15 0
BBX 12 11 2 1
BITMAP
0fc0
3fe0
0060
1fe0
3fe0
70c0
e040
c0c0
c3c0
fff0
7cf0
ENDCHAR
STARTCHAR b
ENCODING 98
SWIDTH 596 0
DWIDTH 15 0
BBX 15 16 0 1
BITMAP
1e00
1e00
0600
0600
0e00
0cf8
0ffc
0f0e
0c06
1c06
1806
180e
180c
1c38
fff0
f3c0
ENDCHAR
STARTCHAR c
ENCODING 99
SWIDTH 596 0
DWIDTH 15 0
BBX 12 11 3 1
BITMAP
0fb0
3ff0
7060
6060
c000
c000
c000
c040
e1c0
7fc0
3f00
ENDCHAR
STARTCHAR d
ENCODING 100
SWIDTH 596 0
DWIDTH 15 0
BBX 14 16 2 1
BITMAP
00fc
00fc
011c
0018
0018
0f98
1ff8
3878
6070
e030
c030
c070
c0e0
e1e0
7ff8
1e78
ENDCHAR
STARTCHAR e
ENCODING 101
SWIDTH 596 0
DWIDTH 15 0
BBX 12 11 3 1
BITMAP
0fc0
3fe0
7070
6030
fff0
fff0
c000
c000
e0e0
7fe0
3f00
ENDCHAR
STARTCHAR f
ENCODING 102
SWIDTH 596 0
DWIDTH 15 0
BBX 14 16 2 1
BITMAP
01f0
03fc
0704
0600
0600
3fe0
3fe0
0c00
0c00
0c00
0c00
0c00
1800
1800
ff80
ff80
ENDCHAR
STARTCHAR g
ENCODING 103
SWIDTH 596 0
DWIDTH 15 0
BBX 14 15 2 -3
BITMAP
0fbc
3ffc
78f0
6070
c060
c060
c0e0
c0e0
61e0
7fc0
1ec0
00c0
2380
7f80
7e00
ENDCHAR
STARTCHAR h
ENCODING 104
SWIDTH 596 0
DWIDTH 15 0
BBX 14 16 1 1
BITMAP
3e00
3e00
0e00
0c00
0c00
0df0
0ff8
1e18
1818
1818
1838
3830
3030
3030
fdfc
fdfc
ENDCHAR
STARTCHAR i
ENCODING 105
SWIDTH 596 0
DWIDTH 15 0
BBX 11 17 2 1
BITMAP
00c0
01c0
01c0
0000
0000
0000
1f80
1f00
0300
0300
0300
0700
0600
0600
0600
ffe0
ffe0
ENDCHAR
STARTCHAR j
ENCODING 106
SWIDTH 596 0
DWIDTH 15 0
BBX 13 21 0 -3
BITMAP
0018
0038
0038
0000
0000
0000
1ff0
1ff0
0070
0070
0060
0060
00e0
00e0
00c0
00c0
01c0
01c0
4380
7f00
fc00
ENDCHAR
STARTCHAR k
ENCODING 107
SWIDTH 596 0
DWIDTH 15 0
BBX 15 16 0 1
BITMAP
1f00
1e00
0600
0600
0600
0c7e
0cfe
0cf0
0fc0
1f00
1f80
19c0
18e0
18e0
f8fc
f1fc
ENDCHAR
STARTCHAR l
ENCODING 108
SWIDTH 596 0
DWIDTH 15 0
BBX 11 16 2 1
BITMAP
1f80
1f80
1180
0180
0180
0300
0300
0300
0300
0300
0600
0600
0600
0600
ffe0
ffe0
ENDCHAR
STARTCHAR m
ENCODING 109
SWIDTH 596 0
DWIDTH 15 0
BBX 15 11 0 1
BITMAP
3f9e
3ffe
1ce6
18c6
18c6
18c4
31cc
318c
318c
fdce
f9cc
ENDCHAR
STARTCHAR n
ENCODING 110
SWIDTH 596 0
DWIDTH 15 0
BBX 15 11 0 1
BITMAP
1ef8
3ffc
0f0c
0c0c
0c0c
0c1c
1c18
1818
1818
7efe
7efe
ENDCHAR
STARTCHAR o
ENCODING 111
SWIDTH 596 0
DWIDTH 15 0
BBX 13 11 2 1
BITMAP
07e0
1ff0
3838
6018
e018
c018
c038
c070
e0e0
7fc0
1f00
ENDCHAR
STARTCHAR p
ENCODING 112
SWIDTH 596 0
DWIDTH 15 0
BBX 16 15 -1 -3
BITMAP
1f7c
1ffe
0787
0603
0e03
0c03
0c07
0e06
0f1c
1ff8
19f0
1800
1800
7f00
ff00
ENDCHAR
STARTCHAR q
ENCODING 113
SWIDTH 596 0
DWIDTH 15 0
BBX 15 15 2 -3
BITMAP
0f9e
1ffe
3870
6030
e030
c030
c070
c0e0
e1e0
7fe0
1e60
00e0
00c0
0ff0
0ff0
ENDCHAR
STARTCHAR r
ENCODING 114
SWIDTH 596 0
DWIDTH 15 0
BBX 15 11 1 1
BITMAP
1f78
3ffc
07ce
0700
0e00
0e00
0c00
0c00
0c00
ffc0
ffc0
ENDCHAR
STARTCHAR s
ENCODING 115
SWIDTH 596 0
DWIDTH 15 0
BBX 13 11 2 1
BITMAP
0fd8
1ff0
3030
3030
3fc0
1fe0
0070
6030
7070
ffe0
cf80
ENDCHAR
STARTCHAR t
ENCODING 116
SWIDTH 596 0
DWIDTH 15 0
BBX 10 15 4 1
BITMAP
1800
1800
1800
1000
7fc0
ff80
3000
3000
2000
6000
6000
6000
61c0
7fc0
3e00
ENDCHAR
STARTCHAR u
ENCODING 117
SWIDTH 596 0
DWIDTH 15 0
BBX 12 11 2 1
BITMAP
78f0
78f0
3030
3030
3070
7060
7060
60e0
61e0
3ff0
1ef0
ENDCHAR
STARTCHAR v
ENCODING 118
SWIDTH 596 0
DWIDTH 15 0
BBX 15 11 2 1
BITMAP
fe7e
fc7e
3830
3870
18e0
18c0
1d80
1f80
0f00
0e00
0e00
ENDCHAR
STARTCHAR w
ENCODING 119
SWIDTH 596 0
DWIDTH 15 0
BBX 16 11 2 1
BITMAP
fc1f
f83f
718c
739c
7798
77b8
3fb0
3df0
39e0
39e0
30c0
ENDCHAR
STARTCHAR x
ENCODING 120
SWIDTH 596 0
DWIDTH 15 0
BBX 16 11 0 1
BITMAP
1f3f
3f3f
0638
0360
03c0
03c0
07e0
0e70
1c30
fc7e
fcfc
ENDCHAR
STARTCHAR y
ENCODING 121
SWIDTH 596 0
DWIDTH 15 0
BBX 15 15 2 -3
BITMAP
7efe
fcfc
3030
3030
7070
7060
6060
60e0
73e0
3fe0
1ec0
00c0
41c0
7f80
7e00
ENDCHAR
STARTCHAR z
ENCODING 122
SWIDTH 596 0
DWIDTH 15 0
BBX 13 11 2 1
BITMAP
1ff8
3ff8
30f0
31c0
0380
0700
0e00
3c60
7060
ffe0
ffe0
ENDCHAR
STARTCHAR braceleft
ENCODING 123
SWIDTH 596 0
DWIDTH 15 0
BBX 8 19 7 -1
BITMAP
03
0f
0e
18
18
18
18
18
78
f0
f0
30
70
60
e0
c0
c0
f8
78
ENDCHAR
STARTCHAR bar
ENCODING 124
SWIDTH 596 0
DWIDTH 15 0
BBX 2 21 8 -3
BITMAP
c0
c0
c0
c0
c0
c0
c0
c0
c0
c0
c0
c0
c0
c0
c0
c0
c0
c0
c0
c0
c0
ENDCHAR
STARTCHAR braceright
ENCODING 125
SWIDTH 596 0
DWIDTH 15 0
BBX 9 19 2 -1
BITMAP
0e00
0f80
0380
0180
0380
0300
0700
0600
0700
0780
0780
0e00
0c00
0c00
0c00
0c00
1c00
7800
7000
ENDCHAR
STARTCHAR asciitilde
ENCODING 126
SWIDTH 596 0
DWIDTH 15 0
BBX 11 5 4 6
BITMAP
1040
7ee0
ffc0
c7c0
4000
ENDCHAR
STARTCHAR space
ENCODING 160
SWIDTH 596 0
DWIDTH 15 0
BBX 0 0 0 1
BITMAP
ENDCHAR
STARTCHAR Aogonek
ENCODING 161
SWIDTH 596 0
DWIDTH 15 0
BBX 15 19 0 -3
BITMAP
07f0
07f0
00f0
01f0
01b0
03b0
0338
0618
0ff8
0ff8
1818
181c
300c
fc3e
fc7e
0030
0064
0078
0070
ENDCHAR
STARTCHAR breve
ENCODING 162
SWIDTH 596 0
DWIDTH 15 0
BBX 9 4 6 14
BITMAP
c180
c300
7f00
3c00
ENDCHAR
STARTCHAR Lslash
ENCODING 163
SWIDTH 596 0
DWIDTH 15 0
BBX 14 15 1 1
BITMAP
1fc0
1fc0
0600
0600
0620
0fe0
0f80
1e00
7c0c
380c
1818
1818
1818
fff8
fff0
ENDCHAR
STARTCHAR currency
ENCODING 164
SWIDTH 596 0
DWIDTH 15 0
BBX 12 12 3 2
BITMAP
c030
ef70
7fe0
30c0
6060
6060
6060
70e0
7fe0
ef70
c030
4010
ENDCHAR
STARTCHAR Lcaron
ENCODING 165
SWIDTH 596 0
DWIDTH 15 0
BBX 17 16 1 1
BITMAP
000f00
1fd800
1fc000
060000
060000
040000
0c0000
0c0000
0c0000
0c0c00
0c0c00
181800
181800
181800
fff800
fff000
ENDCHAR
STARTCHAR Sacute
ENCODING 166
SWIDTH 596 0
DWIDTH 15 0
BBX 15 19 1 1
BITMAP
003c
0060
0000
0000
03e4
07fe
0e1c
1c0c
180c
180c
1f00
0ff0
03f8
0018
6018
6018
7070
7fe0
cfc0
ENDCHAR
STARTCHAR section
ENCODING 167
SWIDTH 596 0
DWIDTH 15 0
BBX 13 17 2 -1
BITMAP
01f8
03f8
0618
0610
0610
0f00
1fc0
31e0
38f0
1c70
0e30
07e0
03c0
6180
6180
7f00
7e00
ENDCHAR
STARTCHAR dieresis
ENCODING 168
SWIDTH 596 0
DWIDTH 15 0
BBX 6 3 8 15
BITMAP
6c
fc
fc
ENDCHAR
STARTCHAR Scaron
ENCODING 169
SWIDTH 596 0
DWIDTH 15 0
BBX 15 20 1 1
BITMAP
0088
01dc
00f8
0070
0000
03e4
07fe
0e1c
1c0c
180c
180c
1f00
0ff0
03f8
0018
6018
6018
7070
7fe0
cfc0
ENDCHAR
STARTCHAR Scedilla
ENCODING 170
SWIDTH 596 0
DWIDTH 15 0
BBX 15 19 1 -3
BITMAP
03e4
07fe
0e1c
1c0c
180c
180c
1f00
0ff0
03f0
0018
6018
6018
7070
7fe0
df80
0700
0780
1f80
1f00
ENDCHAR
STARTCHAR Tcaron
ENCODING 171
SWIDTH 596 0
DWIDTH 15 0
BBX 14 20 3 1
BITMAP
0220
0770
03e0
01c0
0000
3ffc
7ffc
631c
631c
6318
c318
0300
0600
0600
0600
0600
0600
0e00
7f80
7f80
ENDCHAR
STARTCHAR Zacute
ENCODING 172
SWIDTH 596 0
DWIDTH 15 0
BBX 14 19 2 1
BITMAP
0078
00c0
0000
0000
1ffc
1ffc
1838
1870
30e0
31c0
0380
0700
0600
0e38
1c30
3830
7030
fff0
fff0
ENDCHAR
STARTCHAR hyphen
ENCODING 173
SWIDTH 596 0
DWIDTH 15 0
BBX 6 2 6 7
BITMAP
fc
fc
ENDCHAR
STARTCHAR Zcaron
ENCODING 174
SWIDTH 596 0
DWIDTH 15 0
BBX 14 20 2 1
BITMAP
0110
03b8
01f0
00e0
0000
1ffc
1ffc
1838
1870
30e0
31c0
0380
0700
0600
0e38
1c30
3830
7030
fff0
fff0
ENDCHAR
STARTCHAR Zdotaccent
ENCODING 175
SWIDTH 596 0
DWIDTH 15 0
BBX 14 20 2 1
BITMAP
0040
00c0
0080
0000
0000
1ffc
1ffc
1838
1870
30e0
31c0
0380
0700
0600
0e38
1c30
3830
7030
fff0
fff0
ENDCHAR
STARTCHAR degree
ENCODING 176
SWIDTH 596 0
DWIDTH 15 0
BBX 8 8 5 9
BITMAP
3c
7e
e7
c3
c3
e7
7e
3c
ENDCHAR
STARTCHAR aogonek
ENCODING 177
SWIDTH 596 0
DWIDTH 15 0
BBX 12 15 2 -3
BITMAP
0fc0
3fe0
0060
0fe0
3fe0
70c0
e040
c0c0
c3c0
fff0
7cf0
0180
0320
03c0
0380
ENDCHAR
STARTCHAR ogonek
ENCODING 178
SWIDTH 596 0
DWIDTH 15 0
BBX 5 4 5 -3
BITMAP
60
c8
f0
e0
ENDCHAR
STARTCHAR lslash
ENCODING 179
SWIDTH 596 0
DWIDTH 15 0
BBX 12 16 2 1
BITMAP
1f80
1f80
1180
0380
0300
0330
03f0
07c0
1f00
3e00
3600
0600
0600
0600
ffc0
ffc0
ENDCHAR
STARTCHAR acute
ENCODING 180
SWIDTH 596 0
DWIDTH 15 0
BBX 7 2 8 15
BITMAP
3c
60
ENDCHAR
STARTCHAR lcaron
ENCODING 181
SWIDTH 596 0
DWIDTH 15 0
BBX 16 16 2 1
BITMAP
1f9e
1fb0
1180
0180
0180
0300
0300
0300
0300
0300
0600
0600
0600
0600
ffe0
ffe0
ENDCHAR
STARTCHAR sacute
ENCODING 182
SWIDTH 596 0
DWIDTH 15 0
BBX 13 16 2 1
BITMAP
00f0
0180
0000
0000
0000
0fd8
1ff0
3030
3030
3fc0
1fe0
0070
6030
7070
ffe0
cf80
ENDCHAR
STARTCHAR caron
ENCODING 183
SWIDTH 596 0
DWIDTH 15 0
BBX 7 3 7 14
BITMAP
ee
7c
38
ENDCHAR
STARTCHAR cedilla
ENCODING 184
SWIDTH 596 0
DWIDTH 15 0
BBX 6 5 4 -3
BITMAP
18
38
3c
fc
f8
ENDCHAR
STARTCHAR scaron
ENCODING 185
SWIDTH 596 0
DWIDTH 15 0
BBX 13 16 2 1
BITMAP
0770
03e0
01c0
0000
0000
0fd8
1ff0
3030
3030
3fc0
1fe0
0070
6030
7070
ffe0
cf80
ENDCHAR
STARTCHAR scedilla
ENCODING 186
SWIDTH 596 0
DWIDTH 15 0
BBX 13 15 2 -3
BITMAP
0fd8
1ff0
3030
3030
3f80
1fe0
0070
6030
7070
ffe0
df80
0700
0f00
1f00
1e00
ENDCHAR
STARTCHAR tcaron
ENCODING 187
SWIDTH 596 0
DWIDTH 15 0
BBX 12 16 4 1
BITMAP
01e0
1b00
1800
1800
1000
7fc0
ff80
3000
3000
2000
6000
6000
6000
61c0
7fc0
3e00
ENDCHAR
STARTCHAR zacute
ENCODING 188
SWIDTH 596 0
DWIDTH 15 0
BBX 13 16 2 1
BITMAP
00f0
0180
0000
0000
0000
1ff8
3ff8
30f0
31c0
0380
0700
0e00
3c60
7060
ffe0
ffe0
ENDCHAR
STARTCHAR hungarumlaut
ENCODING 189
SWIDTH 596 0
DWIDTH 15 0
BBX 10 3 6 14
BITMAP
1980
3300
4400
ENDCHAR
STARTCHAR zcaron
ENCODING 190
SWIDTH 596 0
DWIDTH 15 0
BBX 13 16 2 1
BITMAP
0770
03e0
01c0
0000
0000
1ff8
3ff8
30f0
31c0
0380
0700
0e00
3c60
7060
ffe0
ffe0
ENDCHAR
STARTCHAR zdotaccent
ENCODING 191
SWIDTH 596 0
DWIDTH 15 0
BBX 13 17 2 1
BITMAP
0080
0180
0100
0000
0000
0000
1ff8
3ff8
30f0
31c0
0380
0700
0e00
3c60
7060
ffe0
ffe0
ENDCHAR
STARTCHAR Racute
ENCODING 192
SWIDTH 596 0
DWIDTH 15 0
BBX 15 19 1 1
BITMAP
003c
0060
0000
0000
1ff0
3ff8
0c1c
0c0c
0c0c
0c1c
1c38
1ff0
1fe0
18c0
18c0
38e0
3060
fc7c
fc3c
ENDCHAR
STARTCHAR Aacute
ENCODING 193
SWIDTH 596 0
DWIDTH 15 0
BBX 16 19 0 1
BITMAP
001e
0030
0000
0000
07e0
07e0
00f0
01f0
03b0
0330
0730
0638
0ff8
0ff8
1818
1818
3008
fc7e
fc7e
ENDCHAR
STARTCHAR Acircumflex
ENCODING 194
SWIDTH 596 0
DWIDTH 15 0
BBX 15 20 0 1
BITMAP
00e0
01f0
03b8
0000
0000
07e0
07e0
00f0
01f0
03b0
0330
0730
0638
0ff8
0ff8
1818
1818
3008
fc7e
fc7e
ENDCHAR
STARTCHAR Abreve
ENCODING 195
SWIDTH 596 0
DWIDTH 15 0
BBX 15 20 0 1
BITMAP
0306
038c
01fc
00f0
0000
07e0
07e0
00f0
01f0
03b0
0330
0730
0638
0ff8
0ff8
1818
1818
3008
fc7e
fc7e
ENDCHAR
STARTCHAR Adieresis
ENCODING 196
SWIDTH 596 0
DWIDTH 15 0
BBX 15 20 0 1
BITMAP
0066
00ee
00ee
0000
0000
07e0
07e0
00f0
01f0
03b0
0330
0730
0638
0ff8
0ff8
1818
1818
3008
fc7e
fc7e
ENDCHAR
STARTCHAR Lacute
ENCODING 197
SWIDTH 596 0
DWIDTH 15 0
BBX 14 19 1 1
BITMAP
01e0
0300
0000
0000
1fc0
1fc0
0600
0600
0400
0c00
0c00
0c00
0c0c
0c0c
1818
1818
1818
fff8
fff0
ENDCHAR
STARTCHAR Cacute
ENCODING 198
SWIDTH 596 0
DWIDTH 15 0
BBX 14 19 3 1
BITMAP
00f0
0180
0000
0000
03c8
0ffc
1c3c
3018
7018
6018
e000
c000
c000
c000
c000
c020
6070
7ff0
1f80
ENDCHAR
STARTCHAR Ccedilla
ENCODING 199
SWIDTH 596 0
DWIDTH 15 0
BBX 14 20 3 -4
BITMAP
03c8
0ffc
1c3c
3018
7018
6018
e000
c000
c000
c000
c000
c020
e070
7ff0
3f80
0e00
0f00
2300
3f00
3e00
ENDCHAR
STARTCHAR Ccaron
ENCODING 200
SWIDTH 596 0
DWIDTH 15 0
BBX 14 20 3 1
BITMAP
0220
0770
03e0
01c0
0000
03c8
0ffc
1c3c
3018
7018
6018
e000
c000
c000
c000
c000
c020
6070
7ff0
1f80
ENDCHAR
STARTCHAR Eacute
ENCODING 201
SWIDTH 596 0
DWIDTH 15 0
BBX 16 19 1 1
BITMAP
003c
0060
0000
0000
1fff
1fff
0607
0e06
0e26
0c76
0ff0
0fe0
1c60
1cec
180c
181c
181c
fff8
fff8
ENDCHAR
STARTCHAR Eogonek
ENCODING 202
SWIDTH 596 0
DWIDTH 15 0
BBX 16 19 1 -3
BITMAP
1ffe
1ffe
0606
0e06
0c66
0c66
0fe0
0fe0
1ce0
18cc
181c
1818
1818
fff8
fff8
00e0
0188
01f0
01e0
ENDCHAR
STARTCHAR Edieresis
ENCODING 203
SWIDTH 596 0
DWIDTH 15 0
BBX 16 20 1 1
BITMAP
00cc
01dc
01dc
0000
0000
1fff
1fff
0607
0e06
0e26
0c76
0ff0
0fe0
1c60
1cec
180c
181c
181c
fff8
fff8
ENDCHAR
STARTCHAR Ecaron
ENCODING 204
SWIDTH 596 0
DWIDTH 15 0
BBX 16 20 1 1
BITMAP
0088
01dc
00f8
0070
0000
1fff
1fff
0607
0e06
0e26
0c76
0ff0
0fe0
1c60
1cec
180c
181c
181c
fff8
fff8
ENDCHAR
STARTCHAR Iacute
ENCODING 205
SWIDTH 596 0
DWIDTH 15 0
BBX 14 19 2 1
BITMAP
0078
00c0
0000
0000
1ffc
1ffc
0180
0180
0180
0380
0300
0300
0300
0700
0700
0600
0600
ffe0
ffe0
ENDCHAR
STARTCHAR Icircumflex
ENCODING 206
SWIDTH 596 0
DWIDTH 15 0
BBX 14 20 2 1
BITMAP
00e0
01f0
03b8
0000
0000
1ffc
1ffc
0180
0180
0180
0380
0300
0300
0300
0700
0700
0600
0600
ffe0
ffe0
ENDCHAR
STARTCHAR Dcaron
ENCODING 207
SWIDTH 596 0
DWIDTH 15 0
BBX 16 20 0 1
BITMAP
0088
01dc
00f8
0070
0000
1ff8
1ffe
060e
0607
0e03
0e03
0c03
0c03
0c06
1c06
1c0e
181c
1838
7ff0
7fc0
ENDCHAR
STARTCHAR Eth
ENCODING 208
SWIDTH 596 0
DWIDTH 15 0
BBX 16 15 0 1
BITMAP
1ff8
1ffe
060e
0607
0e03
0e03
3fc3
3fc3
0c06
1c06
180e
181c
1838
7ff0
7fc0
ENDCHAR
STARTCHAR Nacute
ENCODING 209
SWIDTH 596 0
DWIDTH 15 0
BBX 18 19 0 1
BITMAP
001e00
003000
000000
000000
1f0fc0
1f1fc0
0f8300
0f8700
0d8700
0dc600
1dc600
1cce00
18ee00
18ec00
186c00
387c00
307c00
fe3c00
fc3800
ENDCHAR
STARTCHAR Ncaron
ENCODING 210
SWIDTH 596 0
DWIDTH 15 0
BBX 18 20 0 1
BITMAP
004400
00ee00
007c00
003800
000000
1f0fc0
1f1fc0
0f8300
0f8700
0d8700
0dc600
1dc600
1cce00
18ee00
18ec00
186c00
387c00
307c00
fe3c00
fc3800
ENDCHAR
STARTCHAR Oacute
ENCODING 211
SWIDTH 596 0
DWIDTH 15 0
BBX 14 19 2 1
BITMAP
0078
00c0
0000
0000
03e0
0ff0
1c38
381c
700c
600c
e00c
c00c
c01c
c018
c038
e070
70e0
7fc0
1f00
ENDCHAR
STARTCHAR Ocircumflex
ENCODING 212
SWIDTH 596 0
DWIDTH 15 0
BBX 14 20 2 1
BITMAP
00e0
01f0
03b8
0000
0000
03e0
0ff0
1c38
381c
700c
600c
e00c
c00c
c01c
c018
c038
e070
70e0
7fc0
1f00
ENDCHAR
STARTCHAR Ohungarumlaut
ENCODING 213
SWIDTH 596 0
DWIDTH 15 0
BBX 15 20 2 1
BITMAP
00cc
0198
0220
0000
0000
03e0
0ff0
1c38
381c
700c
600c
e00c
c00c
c01c
c018
c038
e070
70e0
7fc0
1f00
ENDCHAR
STARTCHAR Odieresis
ENCODING 214
SWIDTH 596 0
DWIDTH 15 0
BBX 14 20 2 1
BITMAP
0198
03b8
03b8
0000
0000
03e0
0ff0
1c38
381c
700c
600c
e00c
c00c
c01c
c018
c038
e070
70e0
7fc0
1f00
ENDCHAR
STARTCHAR multiply
ENCODING 215
SWIDTH 596 0
DWIDTH 15 0
BBX 10 10 4 4
BITMAP
4080
e180
73c0
3f80
1e00
1e00
3f00
7380
e1c0
4080
ENDCHAR
STARTCHAR Rcaron
ENCODING 216
SWIDTH 596 0
DWIDTH 15 0
BBX 14 20 1 1
BITMAP
0088
01dc
00f8
0070
0000
1ff0
3ff8
0c1c
0c0c
0c0c
0c1c
1c38
1ff0
1fe0
18c0
18c0
38e0
3060
fc7c
fc3c
ENDCHAR
STARTCHAR Uring
ENCODING 217
SWIDTH 596 0
DWIDTH 15 0
BBX 15 21 3 1
BITMAP
0380
07c0
06c0
07c0
0380
0000
fefe
fefc
7030
7030
6030
6030
6030
6060
e060
c060
c060
c0c0
e1c0
7f80
3e00
ENDCHAR
STARTCHAR Uacute
ENCODING 218
SWIDTH 596 0
DWIDTH 15 0
BBX 15 19 3 1
BITMAP
00f0
0180
0000
0000
fefe
fefc
7030
7030
6030
6030
6030
6060
e060
c060
c060
c0c0
e1c0
7f80
3e00
ENDCHAR
STARTCHAR Uhungarumlaut
ENCODING 219
SWIDTH 596 0
DWIDTH 15 0
BBX 15 20 3 1
BITMAP
0198
0330
0440
0000
0000
fefe
fefc
7030
7030
6030
6030
6030
6060
e060
c060
c060
c0c0
e1c0
7f80
3e00
ENDCHAR
STARTCHAR Udieresis
ENCODING 220
SWIDTH 596 0
DWIDTH 15 0
BBX 15 20 3 1
BITMAP
0330
0770
0770
0000
0000
fefe
fefc
7030
7030
6030
6030
6030
6060
e060
c060
c060
c0c0
e1c0
7f80
3e00
ENDCHAR
STARTCHAR Yacute
ENCODING 221
SWIDTH 596 0
DWIDTH 15 0
BBX 14 19 3 1
BITMAP
00f0
0180
0000
0000
fcfc
fcfc
3060
30e0
18c0
1980
1f00
0f00
0e00
0c00
0c00
0c00
0c00
7f00
7f00
ENDCHAR
STARTCHAR Tcedilla
ENCODING 222
SWIDTH 596 0
DWIDTH 15 0
BBX 14 19 3 -3
BITMAP
3ffc
7ffc
631c
631c
6318
c318
0300
0600
0600
0600
0600
0600
0e00
7f80
7f80
0e00
1e00
7e00
3c00
ENDCHAR
STARTCHAR germandbls
ENCODING 223
SWIDTH 596 0
DWIDTH 15 0
BBX 13 16 1 1
BITMAP
01f0
03f8
0718
0e18
0c38
0c70
0de0
1de0
1870
1838
1818
1818
3838
3070
f7e0
f3c0
ENDCHAR
STARTCHAR racute
ENCODING 224
SWIDTH 596 0
DWIDTH 15 0
BBX 15 16 1 1
BITMAP
0078
00c0
0000
0000
0000
1f78
3ffc
07ce
0700
0e00
0e00
0c00
0c00
0c00
ffc0
ffc0
ENDCHAR
STARTCHAR aacute
ENCODING 225
SWIDTH 596 0
DWIDTH 15 0
BBX 13 16 2 1
BITMAP
00f0
0180
0000
0000
0000
0fc0
3fe0
0060
1fe0
3fe0
70c0
e040
c0c0
c3c0
fff0
7cf0
ENDCHAR
STARTCHAR acircumflex
ENCODING 226
SWIDTH 596 0
DWIDTH 15 0
BBX 12 16 2 1
BITMAP
01e0
07f0
0220
0000
0000
0fc0
3fe0
0060
1fe0
3fe0
70c0
e040
c0c0
c3c0
fff0
7cf0
ENDCHAR
STARTCHAR abreve
ENCODING 227
SWIDTH 596 0
DWIDTH 15 0
BBX 13 17 2 1
BITMAP
0c18
0c30
07f0
03c0
0000
0000
0fc0
3fe0
0060
1fe0
3fe0
70c0
e040
c0c0
c3c0
fff0
7cf0
ENDCHAR
STARTCHAR adieresis
ENCODING 228
SWIDTH 596 0
DWIDTH 15 0
BBX 12 17 2 1
BITMAP
01b0
03f0
03f0
0000
0000
0000
0fc0
3fe0
0060
1fe0
3fe0
70c0
e040
c0c0
c3c0
fff0
7cf0
ENDCHAR
STARTCHAR lacute
ENCODING 229
SWIDTH 596 0
DWIDTH 15 0
BBX 13 20 2 1
BITMAP
00f0
0180
0000
0000
1f80
1f80
1180
0180
0180
0300
0300
0300
0300
0300
0600
0600
0600
0600
ffe0
ffe0
ENDCHAR
STARTCHAR cacute
ENCODING 230
SWIDTH 596 0
DWIDTH 15 0
BBX 12 16 3 1
BITMAP
01e0
0300
0000
0000
0000
0fb0
3ff0
7060
6060
c000
c000
c000
c040
e1c0
7fc0
3f00
ENDCHAR
STARTCHAR ccedilla
ENCODING 231
SWIDTH 596 0
DWIDTH 15 0
BBX 12 16 3 -4
BITMAP
0fb0
3ff0
7060
6060
c000
c000
c000
c040
e1c0
7fc0
3f00
0c00
1e00
2600
3e00
3c00
ENDCHAR
STARTCHAR ccaron
ENCODING 232
SWIDTH 596 0
DWIDTH 15 0
BBX 12 16 3 1
BITMAP
0ee0
07c0
0380
0000
0000
0fb0
3ff0
7060
6060
c000
c000
c000
c040
e1c0
7fc0
3f00
ENDCHAR
STARTCHAR eacute
ENCODING 233
SWIDTH 596 0
DWIDTH 15 0
BBX 12 16 3 1
BITMAP
01e0
0300
0000
0000
0000
0fc0
3fe0
7070
6030
fff0
fff0
c000
c000
e0e0
7fe0
3f00
ENDCHAR
STARTCHAR eogonek
ENCODING 234
SWIDTH 596 0
DWIDTH 15 0
BBX 12 15 3 -3
BITMAP
0fc0
3fe0
7070
6030
fff0
fff0
c000
c000
e0e0
7fe0
3f00
1800
3100
3e00
3c00
ENDCHAR
STARTCHAR edieresis
ENCODING 235
SWIDTH 596 0
DWIDTH 15 0
BBX 12 17 3 1
BITMAP
0360
07e0
07e0
0000
0000
0000
0fc0
3fe0
7070
6030
fff0
fff0
c000
c000
e0e0
7fe0
3f00
ENDCHAR
STARTCHAR ecaron
ENCODING 236
SWIDTH 596 0
DWIDTH 15 0
BBX 12 16 3 1
BITMAP
0ee0
07c0
0380
0000
0000
0fc0
3fe0
7070
6030
fff0
fff0
c000
c000
e0e0
7fe0
3f00
ENDCHAR
STARTCHAR iacute
ENCODING 237
SWIDTH 596 0
DWIDTH 15 0
BBX 13 16 2 1
BITMAP
00f0
0180
0000
0000
0000
1f80
1f00
0300
0300
0300
0700
0600
0600
0600
ffe0
ffe0
ENDCHAR
STARTCHAR icircumflex
ENCODING 238
SWIDTH 596 0
DWIDTH 15 0
BBX 12 16 2 1
BITMAP
01e0
07f0
0220
0000
0000
1f80
1f00
0300
0300
0300
0700
0600
0600
0600
ffe0
ffe0
ENDCHAR
STARTCHAR dcaron
ENCODING 239
SWIDTH 596 0
DWIDTH 15 0
BBX 20 16 2 1
BITMAP
00fde0
00ff00
011c00
001800
001800
0f9800
1ff800
387800
607000
e03000
c03000
c07000
c0e000
e1e000
7ff800
1e7800
ENDCHAR
STARTCHAR dbar
ENCODING 240
SWIDTH 596 0
DWIDTH 15 0
BBX 15 16 2 1
BITMAP
00fc
01fc
0018
07fe
07fe
0fb8
1ff8
38f0
6070
e070
c070
c060
c0e0
e1e0
7ff8
3ef8
ENDCHAR
STARTCHAR nacute
ENCODING 241
SWIDTH 596 0
DWIDTH 15 0
BBX 15 16 0 1
BITMAP
003c
0060
0000
0000
0000
1ef8
3ffc
0f0c
0c0c
0c0c
0c1c
1c18
1818
1818
7efe
7efe
ENDCHAR
STARTCHAR ncaron
ENCODING 242
SWIDTH 596 0
DWIDTH 15 0
BBX 15 16 0 1
BITMAP
01dc
00f8
0070
0000
0000
1ef8
3ffc
0f0c
0c0c
0c0c
0c1c
1c18
1818
1818
7efe
7efe
ENDCHAR
STARTCHAR oacute
ENCODING 243
SWIDTH 596 0
DWIDTH 15 0
BBX 13 16 2 1
BITMAP
00f0
0180
0000
0000
0000
07e0
1ff0
3838
6018
e018
c018
c038
c070
e0e0
7fc0
1f00
ENDCHAR
STARTCHAR ocircumflex
ENCODING 244
SWIDTH 596 0
DWIDTH 15 0
BBX 13 16 2 1
BITMAP
01e0
07f0
0220
0000
0000
07e0
1ff0
3838
6018
e018
c018
c038
c070
e0e0
7fc0
1f00
ENDCHAR
STARTCHAR ohungarumlaut
ENCODING 245
SWIDTH 596 0
DWIDTH 15 0
BBX 14 16 2 1
BITMAP
0198
0330
0440
0000
0000
07e0
1ff0
3838
6018
e018
c018
c038
c070
e0e0
7fc0
1f00
ENDCHAR
STARTCHAR odieresis
ENCODING 246
SWIDTH 596 0
DWIDTH 15 0
BBX 13 17 2 1
BITMAP
01b0
03f0
03f0
0000
0000
0000
07e0
1ff0
3838
6018
e018
c018
c038
c070
e0e0
7fc0
1f00
ENDCHAR
STARTCHAR divide
ENCODING 247
SWIDTH 596 0
DWIDTH 15 0
BBX 12 12 3 3
BITMAP
0e00
0e00
0e00
0000
0000
fff0
fff0
0000
0000
0e00
0e00
0e00
ENDCHAR
STARTCHAR rcaron
ENCODING 248
SWIDTH 596 0
DWIDTH 15 0
BBX 15 16 1 1
BITMAP
03b8
01f0
00e0
0000
0000
1f78
3ffc
07ce
0700
0e00
0e00
0c00
0c00
0c00
ffc0
ffc0
ENDCHAR
STARTCHAR uring
ENCODING 249
SWIDTH 596 0
DWIDTH 15 0
BBX 12 18 2 1
BITMAP
0180
03c0
06c0
07c0
0380
0000
0000
78f0
78f0
3030
3030
3070
7060
7060
60e0
61e0
3ff0
1ef0
ENDCHAR
STARTCHAR uacute
ENCODING 250
SWIDTH 596 0
DWIDTH 15 0
BBX 13 16 2 1
BITMAP
00f0
0180
0000
0000
0000
78f0
78f0
3030
3030
3070
7060
7060
60e0
61e0
3ff0
1ef0
ENDCHAR
STARTCHAR uhungarumlaut
ENCODING 251
SWIDTH 596 0
DWIDTH 15 0
BBX 14 16 2 1
BITMAP
0198
0330
0440
0000
0000
78f0
78f0
3030
3030
3070
7060
7060
60e0
61e0
3ff0
1ef0
ENDCHAR
STARTCHAR udieresis
ENCODING 252
SWIDTH 596 0
DWIDTH 15 0
BBX 12 17 2 1
BITMAP
01b0
03f0
03f0
0000
0000
0000
78f0
78f0
3030
3030
3070
7060
7060
60e0
61e0
3ff0
1ef0
ENDCHAR
STARTCHAR yacute
ENCODING 253
SWIDTH 596 0
DWIDTH 15 0
BBX 15 20 2 -3
BITMAP
00f0
0180
0000
0000
0000
7efe
fcfc
3030
3030
7070
7060
6060
60e0
73e0
3fe0
1ec0
00c0
41c0
7f80
7e00
ENDCHAR
STARTCHAR tcedilla
ENCODING 254
SWIDTH 596 0
DWIDTH 15 0
BBX 10 19 4 -3
BITMAP
1800
1800
1800
1000
7fc0
ff80
3000
3000
2000
6000
6000
6000
61c0
7fc0
3f00
1e00
1e00
7e00
3c00
ENDCHAR
STARTCHAR dotaccent
ENCODING 255
SWIDTH 596 0
DWIDTH 15 0
BBX 2 3 9 15
BITMAP
40
c0
80
ENDCHAR
ENDFONT
